REM DIRINDEX 1\2,1\3,1\4,1\5,1\6
REM DIRNAME folder01,folder02,folder03,folder04,folder05,folder06
TITLE ""
FILE "Disc1Track59.mp3" MP3
  TRACK 01 AUDIO
    TITLE "3:cjc030_01460"
    INDEX 01 00:00:00
  TRACK 02 AUDIO
    TITLE "0:"
    INDEX 01 00:01:09
  TRACK 03 AUDIO
    TITLE "4:cjc030_01461"
    INDEX 01 00:01:17
  TRACK 04 AUDIO
    TITLE "0:"
    INDEX 01 00:02:63
  TRACK 05 AUDIO
    TITLE "5:cjc030_01462"
    INDEX 01 00:02:71
  TRACK 06 AUDIO
    TITLE "0:"
    INDEX 01 00:04:09
  TRACK 07 AUDIO
    TITLE "3:cjc030_01463"
    INDEX 01 00:04:66
  TRACK 08 AUDIO
    TITLE "0:"
    INDEX 01 00:06:16
  TRACK 09 AUDIO
    TITLE "4:cjc030_01464"
    INDEX 01 00:06:24
  TRACK 10 AUDIO
    TITLE "0:"
    INDEX 01 00:07:39
  TRACK 11 AUDIO
    TITLE "5:cjc030_01465"
    INDEX 01 00:07:47
  TRACK 12 AUDIO
    TITLE "0:"
    INDEX 01 00:08:73
  TRACK 13 AUDIO
    TITLE "6:cjc030_01466"
    INDEX 01 00:09:10
  TRACK 14 AUDIO
    TITLE "0:"
    INDEX 01 00:12:61
  TRACK 15 AUDIO
    TITLE "3:cjc030_01467"
    INDEX 01 00:13:33
  TRACK 16 AUDIO
    TITLE "0:"
    INDEX 01 00:14:49
  TRACK 17 AUDIO
    TITLE "4:cjc030_01468"
    INDEX 01 00:14:58
  TRACK 18 AUDIO
    TITLE "0:"
    INDEX 01 00:17:65
  TRACK 19 AUDIO
    TITLE "5:cjc030_01469"
    INDEX 01 00:17:72
  TRACK 20 AUDIO
    TITLE "0:"
    INDEX 01 00:19:16
  TRACK 21 AUDIO
    TITLE "6:cjc030_01470"
    INDEX 01 00:19:28
  TRACK 22 AUDIO
    TITLE "0:"
    INDEX 01 00:24:16
  TRACK 23 AUDIO
    TITLE "3:cjc030_01471"
    INDEX 01 00:24:67
  TRACK 24 AUDIO
    TITLE "0:"
    INDEX 01 00:26:11
  TRACK 25 AUDIO
    TITLE "4:cjc030_01472"
    INDEX 01 00:26:18
  TRACK 26 AUDIO
    TITLE "0:"
    INDEX 01 00:28:21
  TRACK 27 AUDIO
    TITLE "5:cjc030_01473"
    INDEX 01 00:28:31
  TRACK 28 AUDIO
    TITLE "0:"
    INDEX 01 00:29:50
  TRACK 29 AUDIO
    TITLE "6:cjc030_01474"
    INDEX 01 00:29:64
  TRACK 30 AUDIO
    TITLE "0:"
    INDEX 01 00:33:17
  TRACK 31 AUDIO
    TITLE "3:cjc030_01475"
    INDEX 01 00:33:69
  TRACK 32 AUDIO
    TITLE "0:"
    INDEX 01 00:35:10
  TRACK 33 AUDIO
    TITLE "4:cjc030_01476"
    INDEX 01 00:35:21
  TRACK 34 AUDIO
    TITLE "0:"
    INDEX 01 00:37:05
  TRACK 35 AUDIO
    TITLE "5:cjc030_01477"
    INDEX 01 00:37:14
  TRACK 36 AUDIO
    TITLE "0:"
    INDEX 01 00:38:33
  TRACK 37 AUDIO
    TITLE "6:cjc030_01478"
    INDEX 01 00:38:47
  TRACK 38 AUDIO
    TITLE "0:"
    INDEX 01 00:44:01
  TRACK 39 AUDIO
    TITLE "3:cjc030_01479"
    INDEX 01 00:44:52
  TRACK 40 AUDIO
    TITLE "0:"
    INDEX 01 00:45:69
  TRACK 41 AUDIO
    TITLE "4:cjc030_01480"
    INDEX 01 00:46:02
  TRACK 42 AUDIO
    TITLE "0:"
    INDEX 01 00:47:21
  TRACK 43 AUDIO
    TITLE "5:cjc030_01481"
    INDEX 01 00:47:28
  TRACK 44 AUDIO
    TITLE "0:"
    INDEX 01 00:48:44
  TRACK 45 AUDIO
    TITLE "3:cjc030_01482"
    INDEX 01 00:49:29
  TRACK 46 AUDIO
    TITLE "0:"
    INDEX 01 00:50:58
  TRACK 47 AUDIO
    TITLE "4:cjc030_01483"
    INDEX 01 00:50:70
  TRACK 48 AUDIO
    TITLE "0:"
    INDEX 01 00:51:54
  TRACK 49 AUDIO
    TITLE "5:cjc030_01484"
    INDEX 01 00:51:63
  TRACK 50 AUDIO
    TITLE "0:"
    INDEX 01 00:53:19
  TRACK 51 AUDIO
    TITLE "3:cjc030_01485"
    INDEX 01 00:53:70
  TRACK 52 AUDIO
    TITLE "0:"
    INDEX 01 00:55:08
  TRACK 53 AUDIO
    TITLE "4:cjc030_01486"
    INDEX 01 00:55:18
  TRACK 54 AUDIO
    TITLE "0:"
    INDEX 01 00:56:45
  TRACK 55 AUDIO
    TITLE "5:cjc030_01487"
    INDEX 01 00:56:53
  TRACK 56 AUDIO
    TITLE "0:"
    INDEX 01 00:57:68
  TRACK 57 AUDIO
    TITLE "6:cjc030_01488"
    INDEX 01 00:58:05
  TRACK 58 AUDIO
    TITLE "0:"
    INDEX 01 01:02:73
  TRACK 59 AUDIO
    TITLE "3:cjc030_01489"
    INDEX 01 01:03:45
  TRACK 60 AUDIO
    TITLE "0:"
    INDEX 01 01:04:50
  TRACK 61 AUDIO
    TITLE "4:cjc030_01490"
    INDEX 01 01:04:60
  TRACK 62 AUDIO
    TITLE "0:"
    INDEX 01 01:05:62
  TRACK 63 AUDIO
    TITLE "5:cjc030_01491"
    INDEX 01 01:05:71
  TRACK 64 AUDIO
    TITLE "0:"
    INDEX 01 01:07:02
  TRACK 65 AUDIO
    TITLE "3:cjc030_01492"
    INDEX 01 01:07:53
  TRACK 66 AUDIO
    TITLE "0:"
    INDEX 01 01:08:60
  TRACK 67 AUDIO
    TITLE "4:cjc030_01493"
    INDEX 01 01:08:70
  TRACK 68 AUDIO
    TITLE "0:"
    INDEX 01 01:10:35
  TRACK 69 AUDIO
    TITLE "5:cjc030_01494"
    INDEX 01 01:10:45
  TRACK 70 AUDIO
    TITLE "0:"
    INDEX 01 01:11:52
  TRACK 71 AUDIO
    TITLE "6:cjc030_01495"
    INDEX 01 01:11:64
  TRACK 72 AUDIO
    TITLE "0:"
    INDEX 01 01:15:25
  TRACK 73 AUDIO
    TITLE "3:cjc030_01496"
    INDEX 01 01:15:74
  TRACK 74 AUDIO
    TITLE "0:"
    INDEX 01 01:17:22
  TRACK 75 AUDIO
    TITLE "4:cjc030_01497"
    INDEX 01 01:17:28
  TRACK 76 AUDIO
    TITLE "0:"
    INDEX 01 01:19:42
  TRACK 77 AUDIO
    TITLE "5:cjc030_01498"
    INDEX 01 01:19:50
  TRACK 78 AUDIO
    TITLE "0:"
    INDEX 01 01:20:73
  TRACK 79 AUDIO
    TITLE "6:cjc030_01499"
    INDEX 01 01:21:12
  TRACK 80 AUDIO
    TITLE "0:"
    INDEX 01 01:25:31
